<mxfile agent="Mozilla/5.0 (Windows NT 10.0; Win64; x64) AppleWebKit/537.36 (KHTML, like Gecko) Chrome/131.0.0.0 Safari/537.36" host="app.diagrams.net" version="26.0.2">
  <diagram id="R2lEEEUBdFMjLlhIrx00" name="Page-1">
    <mxGraphModel dx="598" dy="758" grid="1" gridSize="10" guides="1" tooltips="1" connect="1" arrows="1" fold="1" page="1" pageScale="1" pageWidth="827" pageHeight="1169" math="0" shadow="0" extFonts="Permanent Marker^https://fonts.googleapis.com/css?family=Permanent+Marker">
      <root>
        <mxCell id="0" />
        <mxCell id="1" parent="0" />
        <mxCell id="WBBsBwpG8qQ3q6BkwMJ3-28" style="edgeStyle=orthogonalEdgeStyle;rounded=0;orthogonalLoop=1;jettySize=auto;html=1;exitX=0.5;exitY=1;exitDx=0;exitDy=0;" edge="1" parent="1" source="ei-XNbHcQwb9apyGuxFF-1">
          <mxGeometry relative="1" as="geometry">
            <mxPoint x="406" y="750" as="targetPoint" />
          </mxGeometry>
        </mxCell>
        <mxCell id="ei-XNbHcQwb9apyGuxFF-1" value="STUDENT" style="shape=table;startSize=30;container=1;collapsible=1;childLayout=tableLayout;fixedRows=1;rowLines=0;fontStyle=1;align=center;resizeLast=1;" parent="1" vertex="1">
          <mxGeometry x="326" y="569.5" width="160" height="161" as="geometry" />
        </mxCell>
        <mxCell id="ei-XNbHcQwb9apyGuxFF-2" value="" style="shape=partialRectangle;collapsible=0;dropTarget=0;pointerEvents=0;fillColor=none;points=[[0,0.5],[1,0.5]];portConstraint=eastwest;top=0;left=0;right=0;bottom=1;" parent="ei-XNbHcQwb9apyGuxFF-1" vertex="1">
          <mxGeometry y="30" width="160" height="30" as="geometry" />
        </mxCell>
        <mxCell id="ei-XNbHcQwb9apyGuxFF-3" value="PK" style="shape=partialRectangle;overflow=hidden;connectable=0;fillColor=none;top=0;left=0;bottom=0;right=0;fontStyle=1;" parent="ei-XNbHcQwb9apyGuxFF-2" vertex="1">
          <mxGeometry width="30" height="30" as="geometry">
            <mxRectangle width="30" height="30" as="alternateBounds" />
          </mxGeometry>
        </mxCell>
        <mxCell id="ei-XNbHcQwb9apyGuxFF-4" value="URN" style="shape=partialRectangle;overflow=hidden;connectable=0;fillColor=none;top=0;left=0;bottom=0;right=0;align=left;spacingLeft=6;fontStyle=5;" parent="ei-XNbHcQwb9apyGuxFF-2" vertex="1">
          <mxGeometry x="30" width="130" height="30" as="geometry">
            <mxRectangle width="130" height="30" as="alternateBounds" />
          </mxGeometry>
        </mxCell>
        <mxCell id="ei-XNbHcQwb9apyGuxFF-5" value="" style="shape=partialRectangle;collapsible=0;dropTarget=0;pointerEvents=0;fillColor=none;points=[[0,0.5],[1,0.5]];portConstraint=eastwest;top=0;left=0;right=0;bottom=0;" parent="ei-XNbHcQwb9apyGuxFF-1" vertex="1">
          <mxGeometry y="60" width="160" height="20" as="geometry" />
        </mxCell>
        <mxCell id="ei-XNbHcQwb9apyGuxFF-6" value="" style="shape=partialRectangle;overflow=hidden;connectable=0;fillColor=none;top=0;left=0;bottom=0;right=0;" parent="ei-XNbHcQwb9apyGuxFF-5" vertex="1">
          <mxGeometry width="30" height="20" as="geometry">
            <mxRectangle width="30" height="20" as="alternateBounds" />
          </mxGeometry>
        </mxCell>
        <mxCell id="ei-XNbHcQwb9apyGuxFF-7" value="Stu_FName" style="shape=partialRectangle;overflow=hidden;connectable=0;fillColor=none;top=0;left=0;bottom=0;right=0;align=left;spacingLeft=6;" parent="ei-XNbHcQwb9apyGuxFF-5" vertex="1">
          <mxGeometry x="30" width="130" height="20" as="geometry">
            <mxRectangle width="130" height="20" as="alternateBounds" />
          </mxGeometry>
        </mxCell>
        <mxCell id="ei-XNbHcQwb9apyGuxFF-8" value="" style="shape=partialRectangle;collapsible=0;dropTarget=0;pointerEvents=0;fillColor=none;points=[[0,0.5],[1,0.5]];portConstraint=eastwest;top=0;left=0;right=0;bottom=0;" parent="ei-XNbHcQwb9apyGuxFF-1" vertex="1">
          <mxGeometry y="80" width="160" height="20" as="geometry" />
        </mxCell>
        <mxCell id="ei-XNbHcQwb9apyGuxFF-9" value="" style="shape=partialRectangle;overflow=hidden;connectable=0;fillColor=none;top=0;left=0;bottom=0;right=0;" parent="ei-XNbHcQwb9apyGuxFF-8" vertex="1">
          <mxGeometry width="30" height="20" as="geometry">
            <mxRectangle width="30" height="20" as="alternateBounds" />
          </mxGeometry>
        </mxCell>
        <mxCell id="ei-XNbHcQwb9apyGuxFF-10" value="Stu_LName" style="shape=partialRectangle;overflow=hidden;connectable=0;fillColor=none;top=0;left=0;bottom=0;right=0;align=left;spacingLeft=6;" parent="ei-XNbHcQwb9apyGuxFF-8" vertex="1">
          <mxGeometry x="30" width="130" height="20" as="geometry">
            <mxRectangle width="130" height="20" as="alternateBounds" />
          </mxGeometry>
        </mxCell>
        <mxCell id="ei-XNbHcQwb9apyGuxFF-11" value="" style="shape=partialRectangle;collapsible=0;dropTarget=0;pointerEvents=0;fillColor=none;points=[[0,0.5],[1,0.5]];portConstraint=eastwest;top=0;left=0;right=0;bottom=0;" parent="ei-XNbHcQwb9apyGuxFF-1" vertex="1">
          <mxGeometry y="100" width="160" height="20" as="geometry" />
        </mxCell>
        <mxCell id="ei-XNbHcQwb9apyGuxFF-12" value="" style="shape=partialRectangle;overflow=hidden;connectable=0;fillColor=none;top=0;left=0;bottom=0;right=0;" parent="ei-XNbHcQwb9apyGuxFF-11" vertex="1">
          <mxGeometry width="30" height="20" as="geometry">
            <mxRectangle width="30" height="20" as="alternateBounds" />
          </mxGeometry>
        </mxCell>
        <mxCell id="ei-XNbHcQwb9apyGuxFF-13" value="Stu_DOB" style="shape=partialRectangle;overflow=hidden;connectable=0;fillColor=none;top=0;left=0;bottom=0;right=0;align=left;spacingLeft=6;" parent="ei-XNbHcQwb9apyGuxFF-11" vertex="1">
          <mxGeometry x="30" width="130" height="20" as="geometry">
            <mxRectangle width="130" height="20" as="alternateBounds" />
          </mxGeometry>
        </mxCell>
        <mxCell id="WBBsBwpG8qQ3q6BkwMJ3-29" style="shape=partialRectangle;collapsible=0;dropTarget=0;pointerEvents=0;fillColor=none;points=[[0,0.5],[1,0.5]];portConstraint=eastwest;top=0;left=0;right=0;bottom=0;" vertex="1" parent="ei-XNbHcQwb9apyGuxFF-1">
          <mxGeometry y="120" width="160" height="20" as="geometry" />
        </mxCell>
        <mxCell id="WBBsBwpG8qQ3q6BkwMJ3-30" style="shape=partialRectangle;overflow=hidden;connectable=0;fillColor=none;top=0;left=0;bottom=0;right=0;" vertex="1" parent="WBBsBwpG8qQ3q6BkwMJ3-29">
          <mxGeometry width="30" height="20" as="geometry">
            <mxRectangle width="30" height="20" as="alternateBounds" />
          </mxGeometry>
        </mxCell>
        <mxCell id="WBBsBwpG8qQ3q6BkwMJ3-31" value="Stu_Email" style="shape=partialRectangle;overflow=hidden;connectable=0;fillColor=none;top=0;left=0;bottom=0;right=0;align=left;spacingLeft=6;" vertex="1" parent="WBBsBwpG8qQ3q6BkwMJ3-29">
          <mxGeometry x="30" width="130" height="20" as="geometry">
            <mxRectangle width="130" height="20" as="alternateBounds" />
          </mxGeometry>
        </mxCell>
        <mxCell id="WBBsBwpG8qQ3q6BkwMJ3-35" style="shape=partialRectangle;collapsible=0;dropTarget=0;pointerEvents=0;fillColor=none;points=[[0,0.5],[1,0.5]];portConstraint=eastwest;top=0;left=0;right=0;bottom=0;" vertex="1" parent="ei-XNbHcQwb9apyGuxFF-1">
          <mxGeometry y="140" width="160" height="20" as="geometry" />
        </mxCell>
        <mxCell id="WBBsBwpG8qQ3q6BkwMJ3-36" style="shape=partialRectangle;overflow=hidden;connectable=0;fillColor=none;top=0;left=0;bottom=0;right=0;" vertex="1" parent="WBBsBwpG8qQ3q6BkwMJ3-35">
          <mxGeometry width="30" height="20" as="geometry">
            <mxRectangle width="30" height="20" as="alternateBounds" />
          </mxGeometry>
        </mxCell>
        <mxCell id="WBBsBwpG8qQ3q6BkwMJ3-37" value="Stu_Type" style="shape=partialRectangle;overflow=hidden;connectable=0;fillColor=none;top=0;left=0;bottom=0;right=0;align=left;spacingLeft=6;" vertex="1" parent="WBBsBwpG8qQ3q6BkwMJ3-35">
          <mxGeometry x="30" width="130" height="20" as="geometry">
            <mxRectangle width="130" height="20" as="alternateBounds" />
          </mxGeometry>
        </mxCell>
        <mxCell id="ei-XNbHcQwb9apyGuxFF-14" value="POSTGRADUATE" style="shape=table;startSize=30;container=1;collapsible=1;childLayout=tableLayout;fixedRows=1;rowLines=0;fontStyle=1;align=center;resizeLast=1;" parent="1" vertex="1">
          <mxGeometry x="206" y="855" width="160" height="100" as="geometry" />
        </mxCell>
        <mxCell id="ei-XNbHcQwb9apyGuxFF-15" value="" style="shape=partialRectangle;collapsible=0;dropTarget=0;pointerEvents=0;fillColor=none;points=[[0,0.5],[1,0.5]];portConstraint=eastwest;top=0;left=0;right=0;bottom=1;" parent="ei-XNbHcQwb9apyGuxFF-14" vertex="1">
          <mxGeometry y="30" width="160" height="30" as="geometry" />
        </mxCell>
        <mxCell id="ei-XNbHcQwb9apyGuxFF-16" value="PK, FK" style="shape=partialRectangle;overflow=hidden;connectable=0;fillColor=none;top=0;left=0;bottom=0;right=0;fontStyle=1;" parent="ei-XNbHcQwb9apyGuxFF-15" vertex="1">
          <mxGeometry width="50" height="30" as="geometry">
            <mxRectangle width="50" height="30" as="alternateBounds" />
          </mxGeometry>
        </mxCell>
        <mxCell id="ei-XNbHcQwb9apyGuxFF-17" value="URN" style="shape=partialRectangle;overflow=hidden;connectable=0;fillColor=none;top=0;left=0;bottom=0;right=0;align=left;spacingLeft=6;fontStyle=5;" parent="ei-XNbHcQwb9apyGuxFF-15" vertex="1">
          <mxGeometry x="50" width="110" height="30" as="geometry">
            <mxRectangle width="110" height="30" as="alternateBounds" />
          </mxGeometry>
        </mxCell>
        <mxCell id="ei-XNbHcQwb9apyGuxFF-18" value="" style="shape=partialRectangle;collapsible=0;dropTarget=0;pointerEvents=0;fillColor=none;points=[[0,0.5],[1,0.5]];portConstraint=eastwest;top=0;left=0;right=0;bottom=0;" parent="ei-XNbHcQwb9apyGuxFF-14" vertex="1">
          <mxGeometry y="60" width="160" height="30" as="geometry" />
        </mxCell>
        <mxCell id="ei-XNbHcQwb9apyGuxFF-19" value="" style="shape=partialRectangle;overflow=hidden;connectable=0;fillColor=none;top=0;left=0;bottom=0;right=0;" parent="ei-XNbHcQwb9apyGuxFF-18" vertex="1">
          <mxGeometry width="50" height="30" as="geometry">
            <mxRectangle width="50" height="30" as="alternateBounds" />
          </mxGeometry>
        </mxCell>
        <mxCell id="ei-XNbHcQwb9apyGuxFF-20" value="Thesis" style="shape=partialRectangle;overflow=hidden;connectable=0;fillColor=none;top=0;left=0;bottom=0;right=0;align=left;spacingLeft=6;" parent="ei-XNbHcQwb9apyGuxFF-18" vertex="1">
          <mxGeometry x="50" width="110" height="30" as="geometry">
            <mxRectangle width="110" height="30" as="alternateBounds" />
          </mxGeometry>
        </mxCell>
        <mxCell id="ei-XNbHcQwb9apyGuxFF-21" value="UNDERGRADUATE" style="shape=table;startSize=30;container=1;collapsible=1;childLayout=tableLayout;fixedRows=1;rowLines=0;fontStyle=1;align=center;resizeLast=1;" parent="1" vertex="1">
          <mxGeometry x="446" y="855" width="160" height="100" as="geometry" />
        </mxCell>
        <mxCell id="ei-XNbHcQwb9apyGuxFF-22" value="" style="shape=partialRectangle;collapsible=0;dropTarget=0;pointerEvents=0;fillColor=none;points=[[0,0.5],[1,0.5]];portConstraint=eastwest;top=0;left=0;right=0;bottom=1;" parent="ei-XNbHcQwb9apyGuxFF-21" vertex="1">
          <mxGeometry y="30" width="160" height="30" as="geometry" />
        </mxCell>
        <mxCell id="ei-XNbHcQwb9apyGuxFF-23" value="PK, FK" style="shape=partialRectangle;overflow=hidden;connectable=0;fillColor=none;top=0;left=0;bottom=0;right=0;fontStyle=1;" parent="ei-XNbHcQwb9apyGuxFF-22" vertex="1">
          <mxGeometry width="50" height="30" as="geometry">
            <mxRectangle width="50" height="30" as="alternateBounds" />
          </mxGeometry>
        </mxCell>
        <mxCell id="ei-XNbHcQwb9apyGuxFF-24" value="URN" style="shape=partialRectangle;overflow=hidden;connectable=0;fillColor=none;top=0;left=0;bottom=0;right=0;align=left;spacingLeft=6;fontStyle=5;" parent="ei-XNbHcQwb9apyGuxFF-22" vertex="1">
          <mxGeometry x="50" width="110" height="30" as="geometry">
            <mxRectangle width="110" height="30" as="alternateBounds" />
          </mxGeometry>
        </mxCell>
        <mxCell id="ei-XNbHcQwb9apyGuxFF-25" value="" style="shape=partialRectangle;collapsible=0;dropTarget=0;pointerEvents=0;fillColor=none;points=[[0,0.5],[1,0.5]];portConstraint=eastwest;top=0;left=0;right=0;bottom=0;" parent="ei-XNbHcQwb9apyGuxFF-21" vertex="1">
          <mxGeometry y="60" width="160" height="30" as="geometry" />
        </mxCell>
        <mxCell id="ei-XNbHcQwb9apyGuxFF-26" value="" style="shape=partialRectangle;overflow=hidden;connectable=0;fillColor=none;top=0;left=0;bottom=0;right=0;" parent="ei-XNbHcQwb9apyGuxFF-25" vertex="1">
          <mxGeometry width="50" height="30" as="geometry">
            <mxRectangle width="50" height="30" as="alternateBounds" />
          </mxGeometry>
        </mxCell>
        <mxCell id="ei-XNbHcQwb9apyGuxFF-27" value="Total_Credits" style="shape=partialRectangle;overflow=hidden;connectable=0;fillColor=none;top=0;left=0;bottom=0;right=0;align=left;spacingLeft=6;" parent="ei-XNbHcQwb9apyGuxFF-25" vertex="1">
          <mxGeometry x="50" width="110" height="30" as="geometry">
            <mxRectangle width="110" height="30" as="alternateBounds" />
          </mxGeometry>
        </mxCell>
        <mxCell id="ei-XNbHcQwb9apyGuxFF-28" value="" style="endArrow=none;html=1;" parent="1" edge="1">
          <mxGeometry width="50" height="50" relative="1" as="geometry">
            <mxPoint x="406" y="770" as="sourcePoint" />
            <mxPoint x="406" y="750" as="targetPoint" />
          </mxGeometry>
        </mxCell>
        <mxCell id="ei-XNbHcQwb9apyGuxFF-29" value="" style="ellipse;whiteSpace=wrap;html=1;aspect=fixed;" parent="1" vertex="1">
          <mxGeometry x="396" y="770" width="20" height="20" as="geometry" />
        </mxCell>
        <mxCell id="ei-XNbHcQwb9apyGuxFF-30" value="d" style="text;html=1;strokeColor=none;fillColor=none;align=center;verticalAlign=middle;whiteSpace=wrap;rounded=0;" parent="1" vertex="1">
          <mxGeometry x="386" y="770" width="40" height="20" as="geometry" />
        </mxCell>
        <mxCell id="ei-XNbHcQwb9apyGuxFF-31" value="" style="endArrow=none;html=1;" parent="1" edge="1">
          <mxGeometry width="50" height="50" relative="1" as="geometry">
            <mxPoint x="386" y="795" as="sourcePoint" />
            <mxPoint x="426" y="795" as="targetPoint" />
          </mxGeometry>
        </mxCell>
        <mxCell id="ei-XNbHcQwb9apyGuxFF-33" value="" style="endArrow=none;html=1;" parent="1" edge="1">
          <mxGeometry width="50" height="50" relative="1" as="geometry">
            <mxPoint x="406" y="824" as="sourcePoint" />
            <mxPoint x="406" y="795" as="targetPoint" />
          </mxGeometry>
        </mxCell>
        <mxCell id="ei-XNbHcQwb9apyGuxFF-34" value="" style="endArrow=none;html=1;" parent="1" edge="1">
          <mxGeometry width="50" height="50" relative="1" as="geometry">
            <mxPoint x="286" y="825" as="sourcePoint" />
            <mxPoint x="526" y="825" as="targetPoint" />
          </mxGeometry>
        </mxCell>
        <mxCell id="ei-XNbHcQwb9apyGuxFF-35" value="" style="endArrow=none;html=1;exitX=0.5;exitY=0;exitDx=0;exitDy=0;" parent="1" source="ei-XNbHcQwb9apyGuxFF-14" edge="1">
          <mxGeometry width="50" height="50" relative="1" as="geometry">
            <mxPoint x="286" y="850" as="sourcePoint" />
            <mxPoint x="286" y="825" as="targetPoint" />
          </mxGeometry>
        </mxCell>
        <mxCell id="ei-XNbHcQwb9apyGuxFF-36" value="" style="endArrow=none;html=1;exitX=0.5;exitY=0;exitDx=0;exitDy=0;" parent="1" edge="1">
          <mxGeometry width="50" height="50" relative="1" as="geometry">
            <mxPoint x="526" y="855" as="sourcePoint" />
            <mxPoint x="526" y="825" as="targetPoint" />
          </mxGeometry>
        </mxCell>
        <mxCell id="wjjcIbCkv-khAHTKqx7L-105" value="" style="shape=partialRectangle;collapsible=0;dropTarget=0;pointerEvents=0;fillColor=none;points=[[0,0.5],[1,0.5]];portConstraint=eastwest;top=0;left=0;right=0;bottom=0;" parent="1" vertex="1">
          <mxGeometry x="356" y="620" width="110" height="20" as="geometry" />
        </mxCell>
        <mxCell id="wjjcIbCkv-khAHTKqx7L-106" value="" style="shape=partialRectangle;overflow=hidden;connectable=0;fillColor=none;top=0;left=0;bottom=0;right=0;" parent="wjjcIbCkv-khAHTKqx7L-105" vertex="1">
          <mxGeometry width="20.625" height="20" as="geometry" />
        </mxCell>
        <mxCell id="wjjcIbCkv-khAHTKqx7L-116" value="COURSE" style="shape=table;startSize=30;container=1;collapsible=1;childLayout=tableLayout;fixedRows=1;rowLines=0;fontStyle=1;align=center;resizeLast=1;" parent="1" vertex="1">
          <mxGeometry x="40" y="590" width="170" height="120" as="geometry" />
        </mxCell>
        <mxCell id="wjjcIbCkv-khAHTKqx7L-117" value="" style="shape=partialRectangle;collapsible=0;dropTarget=0;pointerEvents=0;fillColor=none;points=[[0,0.5],[1,0.5]];portConstraint=eastwest;top=0;left=0;right=0;bottom=1;" parent="wjjcIbCkv-khAHTKqx7L-116" vertex="1">
          <mxGeometry y="30" width="170" height="30" as="geometry" />
        </mxCell>
        <mxCell id="wjjcIbCkv-khAHTKqx7L-118" value="PK" style="shape=partialRectangle;overflow=hidden;connectable=0;fillColor=none;top=0;left=0;bottom=0;right=0;fontStyle=1;" parent="wjjcIbCkv-khAHTKqx7L-117" vertex="1">
          <mxGeometry width="50" height="30" as="geometry">
            <mxRectangle width="50" height="30" as="alternateBounds" />
          </mxGeometry>
        </mxCell>
        <mxCell id="wjjcIbCkv-khAHTKqx7L-119" value="CRS_CODE" style="shape=partialRectangle;overflow=hidden;connectable=0;fillColor=none;top=0;left=0;bottom=0;right=0;align=left;spacingLeft=6;fontStyle=5;" parent="wjjcIbCkv-khAHTKqx7L-117" vertex="1">
          <mxGeometry x="50" width="120" height="30" as="geometry">
            <mxRectangle width="120" height="30" as="alternateBounds" />
          </mxGeometry>
        </mxCell>
        <mxCell id="wjjcIbCkv-khAHTKqx7L-120" value="" style="shape=partialRectangle;collapsible=0;dropTarget=0;pointerEvents=0;fillColor=none;points=[[0,0.5],[1,0.5]];portConstraint=eastwest;top=0;left=0;right=0;bottom=0;" parent="wjjcIbCkv-khAHTKqx7L-116" vertex="1">
          <mxGeometry y="60" width="170" height="20" as="geometry" />
        </mxCell>
        <mxCell id="wjjcIbCkv-khAHTKqx7L-121" value="" style="shape=partialRectangle;overflow=hidden;connectable=0;fillColor=none;top=0;left=0;bottom=0;right=0;" parent="wjjcIbCkv-khAHTKqx7L-120" vertex="1">
          <mxGeometry width="50" height="20" as="geometry">
            <mxRectangle width="50" height="20" as="alternateBounds" />
          </mxGeometry>
        </mxCell>
        <mxCell id="wjjcIbCkv-khAHTKqx7L-122" value="Crs_Title" style="shape=partialRectangle;overflow=hidden;connectable=0;fillColor=none;top=0;left=0;bottom=0;right=0;align=left;spacingLeft=6;" parent="wjjcIbCkv-khAHTKqx7L-120" vertex="1">
          <mxGeometry x="50" width="120" height="20" as="geometry">
            <mxRectangle width="120" height="20" as="alternateBounds" />
          </mxGeometry>
        </mxCell>
        <mxCell id="wjjcIbCkv-khAHTKqx7L-139" value="" style="shape=partialRectangle;collapsible=0;dropTarget=0;pointerEvents=0;fillColor=none;points=[[0,0.5],[1,0.5]];portConstraint=eastwest;top=0;left=0;right=0;bottom=0;" parent="wjjcIbCkv-khAHTKqx7L-116" vertex="1">
          <mxGeometry y="80" width="170" height="20" as="geometry" />
        </mxCell>
        <mxCell id="wjjcIbCkv-khAHTKqx7L-140" value="" style="shape=partialRectangle;overflow=hidden;connectable=0;fillColor=none;top=0;left=0;bottom=0;right=0;" parent="wjjcIbCkv-khAHTKqx7L-139" vertex="1">
          <mxGeometry width="50" height="20" as="geometry">
            <mxRectangle width="50" height="20" as="alternateBounds" />
          </mxGeometry>
        </mxCell>
        <mxCell id="wjjcIbCkv-khAHTKqx7L-141" value="Crs_Enrollment" style="shape=partialRectangle;overflow=hidden;connectable=0;fillColor=none;top=0;left=0;bottom=0;right=0;align=left;spacingLeft=6;" parent="wjjcIbCkv-khAHTKqx7L-139" vertex="1">
          <mxGeometry x="50" width="120" height="20" as="geometry">
            <mxRectangle width="120" height="20" as="alternateBounds" />
          </mxGeometry>
        </mxCell>
        <mxCell id="wjjcIbCkv-khAHTKqx7L-152" value="" style="shape=partialRectangle;collapsible=0;dropTarget=0;pointerEvents=0;fillColor=none;points=[[0,0.5],[1,0.5]];portConstraint=eastwest;top=0;left=0;right=0;bottom=0;" parent="wjjcIbCkv-khAHTKqx7L-116" vertex="1">
          <mxGeometry y="100" width="170" height="20" as="geometry" />
        </mxCell>
        <mxCell id="wjjcIbCkv-khAHTKqx7L-153" value="" style="shape=partialRectangle;overflow=hidden;connectable=0;fillColor=none;top=0;left=0;bottom=0;right=0;" parent="wjjcIbCkv-khAHTKqx7L-152" vertex="1">
          <mxGeometry width="50" height="20" as="geometry">
            <mxRectangle width="50" height="20" as="alternateBounds" />
          </mxGeometry>
        </mxCell>
        <mxCell id="wjjcIbCkv-khAHTKqx7L-154" value="" style="shape=partialRectangle;overflow=hidden;connectable=0;fillColor=none;top=0;left=0;bottom=0;right=0;align=left;spacingLeft=6;" parent="wjjcIbCkv-khAHTKqx7L-152" vertex="1">
          <mxGeometry x="50" width="120" height="20" as="geometry">
            <mxRectangle width="120" height="20" as="alternateBounds" />
          </mxGeometry>
        </mxCell>
        <mxCell id="wjjcIbCkv-khAHTKqx7L-220" value="enrolls" style="text;html=1;strokeColor=none;fillColor=none;align=center;verticalAlign=middle;whiteSpace=wrap;rounded=0;" parent="1" vertex="1">
          <mxGeometry x="240" y="640" width="40" height="20" as="geometry" />
        </mxCell>
        <mxCell id="wjjcIbCkv-khAHTKqx7L-231" value="" style="endArrow=none;html=1;" parent="1" edge="1">
          <mxGeometry width="50" height="50" relative="1" as="geometry">
            <mxPoint x="386" y="791" as="sourcePoint" />
            <mxPoint x="426" y="791" as="targetPoint" />
          </mxGeometry>
        </mxCell>
        <mxCell id="e9nyPJN5sb5ukhflq2uz-1" value="" style="edgeStyle=entityRelationEdgeStyle;fontSize=12;html=1;endArrow=ERzeroToMany;startArrow=ERmandOne;rounded=0;exitX=1;exitY=0.5;exitDx=0;exitDy=0;entryX=0;entryY=0.5;entryDx=0;entryDy=0;" parent="1" source="wjjcIbCkv-khAHTKqx7L-120" target="ei-XNbHcQwb9apyGuxFF-8" edge="1">
          <mxGeometry width="100" height="100" relative="1" as="geometry">
            <mxPoint x="290" y="720" as="sourcePoint" />
            <mxPoint x="390" y="620" as="targetPoint" />
          </mxGeometry>
        </mxCell>
        <mxCell id="WBBsBwpG8qQ3q6BkwMJ3-1" value="Hobby" style="shape=table;startSize=30;container=1;collapsible=1;childLayout=tableLayout;fixedRows=1;rowLines=0;fontStyle=1;align=center;resizeLast=1;" vertex="1" parent="1">
          <mxGeometry x="770" y="585" width="170" height="130" as="geometry" />
        </mxCell>
        <mxCell id="WBBsBwpG8qQ3q6BkwMJ3-2" value="" style="shape=partialRectangle;collapsible=0;dropTarget=0;pointerEvents=0;fillColor=none;points=[[0,0.5],[1,0.5]];portConstraint=eastwest;top=0;left=0;right=0;bottom=1;" vertex="1" parent="WBBsBwpG8qQ3q6BkwMJ3-1">
          <mxGeometry y="30" width="170" height="30" as="geometry" />
        </mxCell>
        <mxCell id="WBBsBwpG8qQ3q6BkwMJ3-3" value="PK" style="shape=partialRectangle;overflow=hidden;connectable=0;fillColor=none;top=0;left=0;bottom=0;right=0;fontStyle=1;" vertex="1" parent="WBBsBwpG8qQ3q6BkwMJ3-2">
          <mxGeometry width="50" height="30" as="geometry">
            <mxRectangle width="50" height="30" as="alternateBounds" />
          </mxGeometry>
        </mxCell>
        <mxCell id="WBBsBwpG8qQ3q6BkwMJ3-4" value="Hobby_CODE" style="shape=partialRectangle;overflow=hidden;connectable=0;fillColor=none;top=0;left=0;bottom=0;right=0;align=left;spacingLeft=6;fontStyle=5;" vertex="1" parent="WBBsBwpG8qQ3q6BkwMJ3-2">
          <mxGeometry x="50" width="120" height="30" as="geometry">
            <mxRectangle width="120" height="30" as="alternateBounds" />
          </mxGeometry>
        </mxCell>
        <mxCell id="WBBsBwpG8qQ3q6BkwMJ3-5" value="" style="shape=partialRectangle;collapsible=0;dropTarget=0;pointerEvents=0;fillColor=none;points=[[0,0.5],[1,0.5]];portConstraint=eastwest;top=0;left=0;right=0;bottom=0;" vertex="1" parent="WBBsBwpG8qQ3q6BkwMJ3-1">
          <mxGeometry y="60" width="170" height="20" as="geometry" />
        </mxCell>
        <mxCell id="WBBsBwpG8qQ3q6BkwMJ3-6" value="" style="shape=partialRectangle;overflow=hidden;connectable=0;fillColor=none;top=0;left=0;bottom=0;right=0;" vertex="1" parent="WBBsBwpG8qQ3q6BkwMJ3-5">
          <mxGeometry width="50" height="20" as="geometry">
            <mxRectangle width="50" height="20" as="alternateBounds" />
          </mxGeometry>
        </mxCell>
        <mxCell id="WBBsBwpG8qQ3q6BkwMJ3-7" value="Hobby_Name" style="shape=partialRectangle;overflow=hidden;connectable=0;fillColor=none;top=0;left=0;bottom=0;right=0;align=left;spacingLeft=6;" vertex="1" parent="WBBsBwpG8qQ3q6BkwMJ3-5">
          <mxGeometry x="50" width="120" height="20" as="geometry">
            <mxRectangle width="120" height="20" as="alternateBounds" />
          </mxGeometry>
        </mxCell>
        <mxCell id="WBBsBwpG8qQ3q6BkwMJ3-8" value="" style="shape=partialRectangle;collapsible=0;dropTarget=0;pointerEvents=0;fillColor=none;points=[[0,0.5],[1,0.5]];portConstraint=eastwest;top=0;left=0;right=0;bottom=0;" vertex="1" parent="WBBsBwpG8qQ3q6BkwMJ3-1">
          <mxGeometry y="80" width="170" height="25" as="geometry" />
        </mxCell>
        <mxCell id="WBBsBwpG8qQ3q6BkwMJ3-9" value="" style="shape=partialRectangle;overflow=hidden;connectable=0;fillColor=none;top=0;left=0;bottom=0;right=0;" vertex="1" parent="WBBsBwpG8qQ3q6BkwMJ3-8">
          <mxGeometry width="50" height="25" as="geometry">
            <mxRectangle width="50" height="25" as="alternateBounds" />
          </mxGeometry>
        </mxCell>
        <mxCell id="WBBsBwpG8qQ3q6BkwMJ3-10" value="Hobby_Description" style="shape=partialRectangle;overflow=hidden;connectable=0;fillColor=none;top=0;left=0;bottom=0;right=0;align=left;spacingLeft=6;" vertex="1" parent="WBBsBwpG8qQ3q6BkwMJ3-8">
          <mxGeometry x="50" width="120" height="25" as="geometry">
            <mxRectangle width="120" height="25" as="alternateBounds" />
          </mxGeometry>
        </mxCell>
        <mxCell id="WBBsBwpG8qQ3q6BkwMJ3-41" style="shape=partialRectangle;collapsible=0;dropTarget=0;pointerEvents=0;fillColor=none;points=[[0,0.5],[1,0.5]];portConstraint=eastwest;top=0;left=0;right=0;bottom=0;" vertex="1" parent="WBBsBwpG8qQ3q6BkwMJ3-1">
          <mxGeometry y="105" width="170" height="25" as="geometry" />
        </mxCell>
        <mxCell id="WBBsBwpG8qQ3q6BkwMJ3-42" style="shape=partialRectangle;overflow=hidden;connectable=0;fillColor=none;top=0;left=0;bottom=0;right=0;" vertex="1" parent="WBBsBwpG8qQ3q6BkwMJ3-41">
          <mxGeometry width="50" height="25" as="geometry">
            <mxRectangle width="50" height="25" as="alternateBounds" />
          </mxGeometry>
        </mxCell>
        <mxCell id="WBBsBwpG8qQ3q6BkwMJ3-43" value="Hobby_Catagory" style="shape=partialRectangle;overflow=hidden;connectable=0;fillColor=none;top=0;left=0;bottom=0;right=0;align=left;spacingLeft=6;" vertex="1" parent="WBBsBwpG8qQ3q6BkwMJ3-41">
          <mxGeometry x="50" width="120" height="25" as="geometry">
            <mxRectangle width="120" height="25" as="alternateBounds" />
          </mxGeometry>
        </mxCell>
        <mxCell id="WBBsBwpG8qQ3q6BkwMJ3-44" value="Stu_Hobby" style="shape=table;startSize=30;container=1;collapsible=1;childLayout=tableLayout;fixedRows=1;rowLines=0;fontStyle=1;align=center;resizeLast=1;" vertex="1" parent="1">
          <mxGeometry x="530" y="620" width="180" height="60" as="geometry" />
        </mxCell>
        <mxCell id="WBBsBwpG8qQ3q6BkwMJ3-45" value="" style="shape=partialRectangle;collapsible=0;dropTarget=0;pointerEvents=0;fillColor=none;points=[[0,0.5],[1,0.5]];portConstraint=eastwest;top=0;left=0;right=0;bottom=1;" vertex="1" parent="WBBsBwpG8qQ3q6BkwMJ3-44">
          <mxGeometry y="30" width="180" height="30" as="geometry" />
        </mxCell>
        <mxCell id="WBBsBwpG8qQ3q6BkwMJ3-46" value="PK, FK" style="shape=partialRectangle;overflow=hidden;connectable=0;fillColor=none;top=0;left=0;bottom=0;right=0;fontStyle=1;" vertex="1" parent="WBBsBwpG8qQ3q6BkwMJ3-45">
          <mxGeometry width="50" height="30" as="geometry">
            <mxRectangle width="50" height="30" as="alternateBounds" />
          </mxGeometry>
        </mxCell>
        <mxCell id="WBBsBwpG8qQ3q6BkwMJ3-47" value="URN, Hobby_CODE" style="shape=partialRectangle;overflow=hidden;connectable=0;fillColor=none;top=0;left=0;bottom=0;right=0;align=left;spacingLeft=6;fontStyle=5;" vertex="1" parent="WBBsBwpG8qQ3q6BkwMJ3-45">
          <mxGeometry x="50" width="130" height="30" as="geometry">
            <mxRectangle width="130" height="30" as="alternateBounds" />
          </mxGeometry>
        </mxCell>
        <mxCell id="WBBsBwpG8qQ3q6BkwMJ3-57" value="" style="edgeStyle=entityRelationEdgeStyle;fontSize=12;html=1;endArrow=ERzeroToMany;startArrow=ERmandOne;rounded=0;exitX=0.006;exitY=0.033;exitDx=0;exitDy=0;exitPerimeter=0;entryX=0.994;entryY=0.075;entryDx=0;entryDy=0;entryPerimeter=0;" edge="1" parent="1" source="WBBsBwpG8qQ3q6BkwMJ3-45" target="ei-XNbHcQwb9apyGuxFF-8">
          <mxGeometry width="100" height="100" relative="1" as="geometry">
            <mxPoint x="560" y="780" as="sourcePoint" />
            <mxPoint x="700" y="790" as="targetPoint" />
          </mxGeometry>
        </mxCell>
        <mxCell id="WBBsBwpG8qQ3q6BkwMJ3-59" value="" style="edgeStyle=entityRelationEdgeStyle;fontSize=12;html=1;endArrow=ERzeroToMany;startArrow=ERmandOne;rounded=0;exitX=0.006;exitY=0.033;exitDx=0;exitDy=0;exitPerimeter=0;entryX=0.994;entryY=0.075;entryDx=0;entryDy=0;entryPerimeter=0;" edge="1" parent="1">
          <mxGeometry width="100" height="100" relative="1" as="geometry">
            <mxPoint x="390" y="460" as="sourcePoint" />
            <mxPoint x="344" y="460" as="targetPoint" />
          </mxGeometry>
        </mxCell>
        <mxCell id="WBBsBwpG8qQ3q6BkwMJ3-60" value="Text" style="text;html=1;align=center;verticalAlign=middle;resizable=0;points=[];autosize=1;strokeColor=none;fillColor=none;" vertex="1" parent="1">
          <mxGeometry x="325" y="438" width="50" height="30" as="geometry" />
        </mxCell>
      </root>
    </mxGraphModel>
  </diagram>
</mxfile>
